<?xml version="1.0" encoding="UTF-8"?>
<!DOCTYPE svg PUBLIC "-//W3C//DTD SVG 1.1//EN" "http://www.w3.org/Graphics/SVG/1.1/DTD/svg11.dtd">
<!-- Creator: CorelDRAW 2019 (64-Bit) -->
<svg xmlns="http://www.w3.org/2000/svg" xml:space="preserve" width="2.77777in" height="0.34722in" version="1.1" style="shape-rendering:geometricPrecision; text-rendering:geometricPrecision; image-rendering:optimizeQuality; fill-rule:evenodd; clip-rule:evenodd"
viewBox="0 0 2777.77 347.22"
 xmlns:xlink="http://www.w3.org/1999/xlink">
 <defs>
  <style type="text/css">
   <![CDATA[
    .str0 {stroke:white;stroke-width:1.28;stroke-miterlimit:2.61313}
    .str1 {stroke:white;stroke-width:1.29;stroke-miterlimit:2.61313}
    .fil11 {fill:none}
    .fil3 {fill:#001722}
    .fil9 {fill:#0084C4}
    .fil7 {fill:#13457C}
    .fil5 {fill:#1C3663}
    .fil4 {fill:#231F20}
    .fil13 {fill:#3957A7}
    .fil8 {fill:#EC1C2E}
    .fil0 {fill:#F1F2F2}
    .fil1 {fill:#F58220}
    .fil14 {fill:#F9A533}
    .fil12 {fill:#FBB231}
    .fil6 {fill:white}
    .fil10 {fill:white}
    .fil2 {fill:url(#id0)}
   ]]>
  </style>
  <radialGradient id="id0" gradientUnits="userSpaceOnUse" gradientTransform="matrix(1.06307 -0 -0 1.06314 -123 -11)" cx="1953.2" cy="181.93" r="15" fx="1953.2" fy="181.93">
   <stop offset="0" style="stop-opacity:1; stop-color:#FFEEE0"/>
   <stop offset="0.0117647" style="stop-opacity:1; stop-color:#FFEEE0"/>
   <stop offset="0.109804" style="stop-opacity:1; stop-color:#FEE9D7"/>
   <stop offset="0.278431" style="stop-opacity:1; stop-color:#FDDBBF"/>
   <stop offset="0.490196" style="stop-opacity:1; stop-color:#FBC597"/>
   <stop offset="0.74902" style="stop-opacity:1; stop-color:#F8A560"/>
   <stop offset="1" style="stop-opacity:1; stop-color:#F48120"/>
  </radialGradient>
 </defs>
 <g id="Layer_x0020_1">
  <metadata id="CorelCorpID_0Corel-Layer"/>
  <g id="_2653236435840">
   <g>
    <path class="fil0" d="M2190.42 315.01c0,8.62 -6.9,16.38 -16.38,16.38l-449.89 -0.01c-8.62,0 -16.38,-6.9 -16.38,-16.38l0 -268.9c0,-9.48 6.9,-16.38 16.38,-16.38l450.76 0.01c8.62,0 16.38,6.9 16.38,16.38l0 268.9 -0.87 0z"/>
    <path class="fil1" d="M1840.5 331.38l333.55 0c8.62,0 16.38,-6.9 16.38,-16.38l0 -112.91c-31.89,20.69 -152.56,90.5 -349.92,129.28l-0 0z"/>
    <path class="fil2" d="M1955.13 157.28c-12.93,0 -24.13,10.34 -24.13,23.27 0,13.79 10.34,24.13 24.13,24.13 13.79,0 24.13,-10.34 24.13,-23.27 0,-13.79 -11.2,-24.13 -24.13,-24.13z"/>
    <path class="fil3" d="M1818.09 158.15l-12.93 0 0 44.82 12.93 0c6.9,0 12.07,-1.72 16.38,-5.17 5.17,-4.31 8.62,-10.34 8.62,-17.24 -0.86,-13.79 -10.34,-22.41 -25,-22.41zm10.34 33.61c-2.59,2.59 -6.03,3.45 -12.07,3.45l-2.58 0 0 -30.17 2.59 0.01c6.03,0 9.48,0.86 12.07,3.45 3.45,2.59 5.17,6.9 5.17,11.2 0,5.17 -1.72,9.48 -5.17,12.07l-0 -0zm18.1 -33.61l8.62 0 0 44.82 -8.62 0 0 -44.82zm30.17 17.24c-5.17,-1.72 -6.9,-3.45 -6.9,-6.03 0,-2.58 2.59,-5.17 6.9,-5.17 2.59,0 5.17,0.86 6.9,3.45l4.31 -6.03c-3.45,-3.45 -8.62,-5.17 -12.93,-5.17 -7.76,0 -13.79,5.17 -13.79,12.93 0,6.03 2.59,9.48 11.2,12.07 3.45,0.86 5.17,1.72 6.03,2.59 1.72,0.86 2.59,2.59 2.59,4.31 0,3.45 -2.59,6.03 -6.9,6.03 -4.31,0 -7.76,-1.72 -9.48,-6.03l-6.03 5.17c4.31,6.03 8.62,8.62 15.51,8.62 9.48,0 15.51,-6.03 15.51,-14.65 0,-5.17 -2.59,-8.62 -12.93,-12.07l0 -0.01zm16.38 5.17c0,12.93 10.34,23.27 24.13,23.27 3.45,0 6.9,-0.86 11.2,-2.59l0 -10.34c-3.45,3.45 -6.9,5.17 -10.34,5.17 -8.62,0 -15.51,-6.03 -15.51,-15.51 0,-8.62 6.9,-15.51 14.65,-15.51 4.31,0 7.76,1.72 11.2,5.17l0 -10.34c-3.45,-1.72 -6.9,-2.59 -11.2,-2.59 -13.79,0 -24.13,10.34 -24.13,23.27zm106.01 7.76l-12.07 -30.17 -9.48 0 18.96 45.68 4.31 0 19.82 -45.68 -9.47 0 -12.07 30.17zm25.86 14.65l24.99 0 0 -7.76 -16.37 0 0 -12.07 15.51 0 0 -7.76 -15.51 0 0 -9.48 16.37 0 0 -7.76 -24.99 0 0 44.82zm59.47 -31.89c0,-8.62 -6.03,-12.93 -16.38,-12.93l-12.93 0 0 44.82 8.62 0 0 -18.1 0.87 0 12.07 18.1 11.2 0 -14.65 -18.96c7.76,-1.72 11.2,-6.03 11.2,-12.93zm-17.24 7.76l-2.58 0 0 -13.79 2.58 0c5.17,0 8.62,2.59 8.62,6.9 0,4.31 -3.45,6.9 -8.62,6.9l0 -0.01z"/>
    <path class="fil4" d="M2090.44 161.59c0,-0.86 -0.86,-0.86 -1.72,-0.86l-0.86 0 0 4.31 0.86 0 0 -1.72 0.86 1.72 0.86 0 -1.72 -1.72c1.72,-0.86 1.72,-1.72 1.72,-1.72l0 -0zm-1.72 0l0 -0.86c0.86,0 0.86,0 0,0.86 0.86,0 0.86,0 0,0z"/>
    <path class="fil4" d="M2089.59 158.15c-1.72,0 -3.45,1.72 -3.45,3.45 0,1.73 1.72,3.45 3.45,3.45 1.72,0 3.45,-1.72 3.45,-3.45 0,-1.73 -1.72,-3.45 -3.45,-3.45zm0 6.9c-1.72,0 -2.59,-0.86 -2.59,-2.59 0,-1.72 0.86,-2.59 2.59,-2.59 1.72,0 2.59,0.86 2.59,2.59 0,0.86 -0.86,2.59 -2.59,2.59z"/>
   </g>
   <g>
    <path class="fil5" d="M485.44 315c0,8.62 -6.9,16.38 -16.38,16.38l-449.89 -0c-8.62,0 -16.38,-6.9 -16.38,-16.38l0 -268.9c0,-9.48 6.9,-16.38 16.38,-16.38l450.76 0c8.62,0 16.38,6.9 16.38,16.38l0 268.9 -0.87 0z"/>
    <g>
     <path class="fil6" d="M236.37 162.45c-1.72,0 -4.31,1.72 -5.17,3.45 0,0 -11.2,19.82 -12.93,21.55 -0.86,0.86 -0.86,0 -1.72,0 0,-0.86 -3.45,-21.55 -3.45,-21.55 0,-1.72 -2.59,-3.45 -4.31,-3.45l-6.89 0c-1.72,0 -2.59,1.72 -2.59,3.45 0,0 5.17,31.03 6.9,38.79 0.86,4.31 0,5.17 0,5.17l-6.9 12.07c-0.86,1.72 -0.86,3.45 0.86,3.45l8.62 -0c1.72,0 4.31,-1.72 5.17,-3.45l31.89 -54.3c0,0 3.45,-4.31 0,-4.31 -1.72,-0.86 -9.48,-0.86 -9.48,-0.86l0 0zm-101.7 11.2c-2.59,1.72 -6.03,2.59 -10.34,2.59l-1.73 0c-1.72,0 -2.59,-1.72 -2.59,-3.45l2.59 -10.34c0,-1.72 1.72,-3.45 3.45,-3.45l2.58 0c3.45,0 5.17,0.86 6.9,1.72 1.73,0.86 2.59,2.59 2.59,5.17 0.86,3.45 -0.86,5.17 -3.45,7.76l0 0zm18.1 -16.37c-0.86,-1.72 -2.59,-3.45 -4.31,-4.31 -1.72,-0.86 -4.31,-1.72 -6.9,-2.59 -2.59,-0.87 -6.03,-0.86 -9.48,-0.86l-16.37 0c-1.72,0 -3.45,1.72 -3.45,3.45l-11.2 49.13c0,1.72 0.86,3.45 2.59,3.45l7.75 0c1.72,0 3.45,-1.72 3.45,-3.45l2.59 -12.07c0,-1.72 1.72,-3.45 3.45,-3.45l2.58 0c9.48,0 17.24,-1.72 23.27,-6.03 5.17,-4.31 8.62,-9.48 8.62,-15.51 -1.72,-3.45 -1.72,-6.03 -2.59,-7.76l0.01 0zm38.78 6.89c-3.45,-1.72 -7.76,-2.59 -14.65,-2.59 -3.45,0 -6.9,0 -9.48,0.86 -2.59,0 -2.59,0 -4.31,0.86 -3.45,0.86 -3.45,3.45 -3.45,3.45l-0.86 4.31c-0.86,2.59 0.86,2.59 1.72,2.59 1.72,0 1.72,-0.86 5.17,-1.72 2.59,-0.86 5.17,-0.86 7.76,-0.86 3.45,0 6.03,0 6.9,0.86 1.72,0.86 2.59,1.72 2.59,3.45l0 0.86c0,0 0,0.86 -0.86,0.86 -4.31,0 -7.76,0.86 -12.07,0.86 -4.31,0.86 -7.76,1.72 -10.34,2.59 -3.45,1.72 -5.17,3.45 -6.9,5.17 -1.72,2.59 -2.59,5.17 -2.59,8.62 0,3.45 0.86,6.03 3.45,7.76 2.59,1.72 5.17,2.59 8.62,2.59 1.72,0 3.45,0 5.17,-0.86 0.86,0 2.59,-0.86 3.45,-1.72 0.86,-0.86 1.72,-0.86 3.45,-1.72 0.86,-0.86 1.72,-1.72 3.45,-1.72l0 1.72c0,1.72 0.86,2.59 1.72,2.59l6.89 -0.01c1.72,0 3.45,-1.72 3.45,-2.59l6.03 -25 0 -3.45c0,-3.45 -1.72,-6.03 -4.31,-7.76l0 0zm-14.65 30.17c-0.86,0.86 -1.72,0.86 -3.45,1.72 -1.73,0.86 -2.59,0.86 -4.31,0.86 -1.72,0 -3.45,0 -4.31,-0.86 -0.86,-0.86 -1.72,-1.72 -1.72,-2.59 0,-1.72 0,-2.59 0.86,-4.31 0.86,-0.86 1.72,-1.72 3.45,-2.59 1.73,-0.87 3.45,-0.86 5.17,-0.86 1.72,0 5.17,-0.86 6.03,-0.86 0.86,0 0.86,0 0.86,0.86 0,0.86 -0.86,5.17 -1.72,6.9 0,0.86 -0.86,1.72 -0.86,1.72l0 0.01zm160.31 -30.17c-3.45,-1.72 -7.76,-2.59 -14.65,-2.59 -3.45,0 -6.9,0 -9.48,0.86 -2.59,0 -2.59,0 -4.31,0.86 -3.45,0.86 -3.45,3.45 -3.45,3.45l-0.86 4.31c-0.86,2.59 0.86,2.59 1.72,2.59 1.72,0 1.72,-0.86 5.17,-1.72 2.59,-0.86 5.17,-0.86 7.76,-0.86 3.45,0 6.03,0 6.9,0.86 1.72,0.86 2.59,1.72 2.59,3.45l0 0.86c0,0 0,0.86 -0.86,0.86 -4.31,0 -7.76,0.86 -12.07,0.86 -4.31,0.86 -7.76,1.72 -10.34,2.59 -3.45,1.72 -5.17,3.45 -6.9,5.17 -1.72,2.59 -2.59,5.17 -2.59,8.62 0,3.45 0.86,6.03 3.45,7.76 2.59,1.72 5.17,2.59 8.62,2.59 1.72,0 3.45,0 5.17,-0.86 0.86,0 2.59,-0.86 3.45,-1.72 0.86,-0.86 1.72,-0.86 3.45,-1.72 0.86,-0.86 1.72,-1.72 3.45,-1.72l0 1.72c0,1.72 0.86,2.59 1.72,2.59l6.89 -0.01c1.72,0 3.45,-1.72 3.45,-3.45l6.03 -25 0 -3.45c0,-2.59 -1.72,-5.17 -4.31,-6.9l0.01 0zm-14.66 30.17c-0.86,0.86 -1.72,0.86 -3.45,1.72 -1.73,0.86 -2.59,0.86 -4.31,0.86 -1.72,0 -3.45,0 -4.31,-0.86 -0.86,-0.86 -1.72,-1.72 -1.72,-2.59 0,-1.72 0,-2.59 0.86,-4.31 0.86,-0.86 1.72,-1.72 3.45,-2.59 1.73,-0.87 3.45,-0.86 5.17,-0.86 1.72,0 5.17,-0.86 6.03,-0.86 0.86,0 0.86,0 0.86,0.86 0,0.86 -0.86,5.17 -1.72,6.9 0.86,0.86 0,1.72 -0.86,1.72l0 0.01zm-41.37 -20.69c-2.59,1.72 -6.03,2.59 -10.34,2.59l-1.72 0c-1.72,0 -2.59,-1.72 -2.59,-3.45l2.59 -10.34c0,-1.72 1.72,-3.45 3.45,-3.45l2.58 0c3.45,0 5.17,0.86 6.9,1.72 1.72,0.86 2.59,2.59 2.59,5.17 0,3.45 -0.86,6.03 -3.45,7.76l-0.01 0zm17.24 -16.37c-0.86,-1.72 -2.59,-3.45 -4.31,-4.31 -2.59,-1.72 -4.31,-2.59 -6.9,-2.59 -2.59,-0.86 -6.03,-0.86 -9.48,-0.86l-16.37 0c-1.72,0 -3.45,1.72 -3.45,3.45l-11.2 49.13c0,1.72 0.86,3.45 2.59,3.45l7.75 0c1.72,0 3.45,-1.72 3.45,-3.45l2.59 -12.07c0,-1.72 1.72,-3.45 3.45,-3.45l2.58 0c9.48,0 17.24,-1.72 23.27,-6.03 5.17,-4.31 8.62,-9.48 8.62,-15.51 -0.86,-3.45 -1.72,-6.03 -2.59,-7.76l0 0zm66.37 -7.76l-6.9 0c-1.72,0 -3.45,0.86 -3.45,2.59l0 1.72 -9.48 44.81c0,0.86 0,1.72 -0.86,1.72 0,1.72 0.86,2.59 1.72,2.59l6.9 0c1.72,0 3.45,-0.86 3.45,-2.59l10.34 -49.13c0.86,0 0,-1.72 -1.72,-1.72zm11.2 10.34c-0.86,0 -0.86,0 0,0l-1.72 0c-0.86,0 -1.72,0 -1.72,-0.86 0,0 -0.86,-0.86 -0.86,-1.72l0 -4.31 -0.87 0 0 -0.86 0.86 0 0 -2.59 1.72 0 0 2.59 2.58 0 0 0.86 -2.58 0 0 5.17 2.58 0 0 1.72zm12.93 0l-1.72 0 0 -6.03 -0.86 -0.86 -1.72 0c0,0 -0.86,0 -0.86,0.86l0 5.17 -1.73 0 0 -6.03 -0.86 -0.86 -1.72 0c0,0 -0.86,0 -0.86,0.86l0 6.03 -1.73 0 0 -7.76 1.73 0.01 0 0.86 0.86 -0.86 3.45 0 0.86 0.86c0.86,-0.86 0.86,-0.86 1.72,-0.86l1.73 0c0.86,0 1.72,0 1.72,0.86 0,0.86 0.86,0.86 0.86,2.59l0 5.17 -0.86 -0z"/>
    </g>
   </g>
   <g id="_2687726700224">
    <path class="fil7" d="M2761.33 315c0,8.62 -6.9,16.38 -16.38,16.38l-449.89 -0c-8.62,0 -16.38,-6.9 -16.38,-16.38l0 -268.9c0,-9.48 6.9,-16.38 16.38,-16.38l450.76 0c8.62,0 16.38,6.9 16.38,16.38l0 268.9 -0.87 0z"/>
    <polygon class="fil8" points="2577.76,267.59 2582.06,266.74 2586.37,266.74 2590.69,265.87 2594.99,265.01 2599.3,264.15 2603.61,263.29 2607.06,261.57 2611.37,260.71 2614.82,258.99 2619.13,256.4 2622.58,254.68 2626.03,252.09 2629.48,249.5 2632.93,247.78 2635.51,244.33 2638.96,241.74 2641.55,239.16 2644.14,235.71 2646.72,232.26 2649.31,228.81 2651.9,225.36 2653.62,221.91 2655.35,217.6 2657.07,214.15 2658.79,209.84 2660.51,206.39 2661.37,202.09 2662.23,197.78 2663.09,193.46 2663.95,189.16 2663.95,171.92 2663.09,167.61 2662.23,163.3 2661.37,158.99 2660.51,154.68 2658.79,150.37 2657.07,146.92 2655.35,142.61 2653.62,139.16 2651.9,135.71 2649.31,132.26 2646.72,128.81 2644.14,125.37 2641.55,121.92 2638.96,119.33 2635.51,116.74 2632.93,113.29 2629.48,110.7 2626.03,108.98 2622.58,106.39 2619.13,104.67 2614.82,102.09 2611.37,100.36 2607.06,99.5 2603.61,97.78 2599.3,96.92 2594.99,96.06 2590.69,95.2 2586.37,94.34 2582.06,94.36 2577.76,93.5 2572.58,94.36 2568.28,94.36 2563.96,95.22 2559.65,96.08 2555.35,96.94 2551.9,97.8 2547.59,99.53 2543.28,100.39 2539.83,102.11 2536.38,104.7 2532.93,106.42 2528.62,109 2525.17,110.73 2522.58,113.31 2519.13,116.76 2516.55,119.35 2513.1,121.94 2510.51,125.39 2507.92,128.84 2505.33,132.29 2503.61,135.74 2501.02,139.19 2499.3,142.63 2497.58,146.94 2495.86,150.39 2495,154.7 2493.28,159.01 2492.42,163.32 2491.56,167.63 2491.56,171.94 2490.7,176.25 2490.7,184.87 2491.56,189.18 2491.56,193.49 2492.42,197.8 2493.28,202.11 2495,206.42 2495.86,209.87 2497.58,214.18 2499.3,217.63 2501.02,221.93 2503.61,225.38 2505.33,228.83 2507.92,232.28 2510.51,235.73 2513.1,239.18 2516.55,241.77 2519.13,244.35 2522.58,247.8 2525.17,249.52 2528.62,252.11 2532.93,254.7 2536.38,256.42 2539.83,259.01 2543.28,260.73 2547.59,261.59 2551.9,263.31 2555.35,264.18 2559.65,265.04 2563.96,265.9 2568.28,266.76 2572.58,266.74 "/>
    <polygon class="fil9" points="2462.26,267.59 2467.43,266.74 2471.74,266.74 2476.05,265.87 2480.36,265.01 2484.67,264.15 2488.12,263.29 2492.43,261.57 2496.74,260.71 2500.19,258.99 2503.64,256.4 2507.09,254.68 2511.39,252.09 2514.84,249.5 2517.43,247.78 2520.88,244.33 2523.47,241.74 2526.92,239.16 2529.5,235.71 2532.09,232.26 2534.68,228.81 2536.4,225.36 2538.99,221.91 2540.71,217.6 2542.43,214.15 2544.16,209.84 2545.02,206.39 2546.74,202.09 2547.6,197.78 2548.46,193.46 2548.46,189.16 2549.32,184.85 2549.32,176.23 2548.46,171.92 2548.46,167.61 2547.6,163.3 2546.74,158.99 2545.02,154.68 2544.16,150.37 2542.43,146.92 2540.71,142.61 2538.99,139.16 2536.4,135.71 2534.68,132.26 2532.09,128.81 2529.5,125.37 2526.92,121.92 2523.47,119.33 2520.88,116.74 2517.43,113.29 2514.84,110.7 2511.39,108.98 2507.09,106.39 2503.64,104.67 2500.19,102.09 2496.74,100.36 2492.43,99.5 2488.12,97.78 2484.67,96.92 2480.36,96.06 2476.05,95.2 2471.74,94.34 2467.43,94.36 2462.26,93.5 2457.95,94.36 2453.64,94.36 2449.33,95.22 2445.02,96.08 2440.71,96.94 2436.4,97.8 2432.95,99.53 2428.65,100.39 2425.2,102.11 2420.89,104.7 2417.44,106.42 2413.99,109 2410.54,110.73 2407.09,113.31 2404.5,116.76 2401.06,119.35 2398.46,121.94 2395.88,125.39 2393.29,128.84 2390.7,132.29 2388.11,135.74 2386.39,139.19 2384.67,142.63 2382.95,146.94 2381.23,150.39 2379.5,154.7 2378.65,159.01 2377.78,163.32 2376.93,167.63 2376.06,171.94 2376.06,189.18 2376.93,193.49 2377.78,197.8 2378.65,202.11 2379.5,206.42 2381.23,209.87 2382.95,214.18 2384.67,217.63 2386.39,221.93 2388.11,225.38 2390.7,228.83 2393.29,232.28 2395.88,235.73 2398.46,239.18 2401.06,241.77 2404.5,244.35 2407.09,247.8 2410.54,249.52 2413.99,252.11 2417.44,254.7 2420.89,256.42 2425.2,259.01 2428.65,260.73 2432.95,261.59 2436.4,263.31 2440.71,264.18 2445.02,265.04 2449.33,265.9 2453.64,266.76 2457.95,266.74 "/>
    <path class="fil8" d="M2509.67 127.11l43.95 0 0 -5.17 -39.64 0 -4.31 5.17zm-6.9 10.34l50.85 0 0 -5.17 -48.26 0 -2.59 5.17zm-5.17 10.35l56.02 0 0 -5.17 -54.3 0 -1.72 5.17zm-3.45 10.34l59.47 0 0 -5.17 -58.61 0 -0.86 5.17zm-2.58 10.34l62.05 0 0 -5.17 -61.19 0 -0.86 5.17zm0 19.83l62.05 0 0 -5.17 -62.91 0 0.86 5.17zm0.86 10.34l61.19 0 0 -4.31 -62.05 0 0.86 4.31zm3.45 8.62l57.74 0 0 -4.31 -59.47 0 1.73 4.31zm4.31 11.2l53.43 0 0 -5.17 -56.02 0 2.59 5.17zm6.03 10.35l47.4 0 0 -4.31 -50.85 0 3.45 4.31zm7.76 11.2l38.78 0 0 -5.17 -43.09 0 4.31 5.17zm136.18 -6.03l0 -0.86 0.86 -0.86 0 -0.86 0.86 -0.86 4.31 -0.01 0.86 0.86 0.86 0.86 0 1.72 -0.86 0 0 -1.72 -0.86 -0 0 -0.86 -1.72 0 0 -0.86 -0.86 0.86 -1.73 0 0 0.86 -0.86 0 0 1.72 -0.86 0z"/>
    <path class="fil10" d="M2652.74 233.98l0 -1.72 2.59 -0 0 0.86 0.86 0.01 0 0.86 -0.86 0 0 -0.86 -1.72 0 0 0.86 -0.87 0zm-2.58 0l0.86 0 -0.86 0zm2.58 0l3.45 0 -378.37 0 374.92 0zm5.17 0l-0.86 0 -376.64 0 377.5 0z"/>
    <polygon class="fil10" points="2650.15,233.98 2650.15,235.71 2651.01,236.57 2651.01,237.43 2651.87,238.29 2656.19,238.3 2657.04,237.43 2657.91,236.57 2657.91,235.71 2658.76,234.85 2658.76,233.99 2657.91,233.98 2657.91,234.85 2657.04,234.85 2657.04,236.57 2656.19,237.43 2655.32,237.43 2654.46,238.3 2653.6,238.3 2652.74,237.43 2651.87,237.43 2651.01,236.57 2651.01,233.98 "/>
    <polygon class="fil10" points="2652.74,233.98 2652.74,235.71 2653.6,235.71 2653.6,234.85 2654.46,234.85 2655.32,235.71 2654.46,234.85 2655.32,234.85 2655.32,233.98 "/>
    <polygon class="fil6" points="2558.8,172.79 2552.76,172.79 2552.76,171.93 2550.18,171.93 2548.45,172.79 2545,172.79 2545,173.65 2543.28,173.65 2543.28,174.51 2542.42,175.37 2542.42,177.96 2543.28,177.96 2543.28,178.82 2544.14,179.68 2545,180.54 2546.73,180.55 2547.59,181.41 2548.45,181.41 2550.17,182.27 2551.9,182.27 2552.76,183.13 2554.48,183.99 2555.34,184.85 2556.2,185.71 2557.06,186.57 2557.92,188.3 2557.92,190.02 2558.78,192.61 2557.92,195.19 2557.92,196.91 2557.06,198.64 2557.06,200.36 2556.2,201.22 2555.34,202.94 2553.62,203.8 2552.76,204.66 2551.9,205.52 2550.18,205.54 2548.45,206.41 2547.59,207.27 2527.77,207.27 2526.91,206.41 2525.18,206.41 2524.32,205.54 2526.04,196.93 2528.63,196.93 2529.49,197.79 2532.94,197.79 2533.8,198.65 2542.42,198.65 2543.28,197.79 2544.14,197.79 2544.14,196.93 2545,196.07 2545,195.2 2545.86,194.34 2545.86,193.48 2545,192.62 2545,191.76 2544.14,191.75 2544.14,190.89 2542.42,190.89 2542.42,190.03 2540.7,190.03 2539.83,189.17 2538.97,189.17 2538.11,188.31 2536.39,188.31 2536.39,187.44 2535.52,187.44 2534.66,186.59 2533.8,186.58 2532.94,185.72 2532.07,184.86 2531.22,184 2530.35,183.14 2530.35,181.41 2529.49,179.69 2529.49,174.52 2530.35,173.66 2530.35,171.07 2531.22,170.21 2532.07,169.35 2532.07,168.49 2532.94,167.63 2532.94,166.77 2533.8,166.76 2534.66,165.9 2535.52,165.9 2536.38,165.04 2537.25,165.04 2537.25,164.18 2539.83,164.17 2540.69,163.31 2559.65,163.31 2560.52,164.17 "/>
    <polyline class="fil11 str0" points="2558.8,172.79 2552.76,172.79 2552.76,171.93 2550.18,171.93 2548.45,172.79 2545,172.79 2545,173.65 2543.28,173.65 2543.28,174.51 2542.42,175.37 2542.42,177.96 2543.28,177.96 2543.28,178.82 2544.14,179.68 2545,180.54 2546.73,180.55 2547.59,181.41 2548.45,181.41 2550.17,182.27 2551.9,182.27 2552.76,183.13 2554.48,183.99 2555.34,184.85 2556.2,185.71 2557.06,186.57 2557.92,188.3 2557.92,190.02 2558.78,192.61 2557.92,195.19 2557.92,196.91 2557.06,198.64 2557.06,200.36 2556.2,201.22 2555.34,202.94 2553.62,203.8 2552.76,204.66 2551.9,205.52 2550.18,205.54 2548.45,206.41 2547.59,207.27 2527.77,207.27 2526.91,206.41 2525.18,206.41 2524.32,205.54 2526.04,196.93 2528.63,196.93 2529.49,197.79 2532.94,197.79 2533.8,198.65 2542.42,198.65 2543.28,197.79 2544.14,197.79 2544.14,196.93 2545,196.07 2545,195.2 2545.86,194.34 2545.86,193.48 2545,192.62 2545,191.76 2544.14,191.75 2544.14,190.89 2542.42,190.89 2542.42,190.03 2540.7,190.03 2539.83,189.17 2538.97,189.17 2538.11,188.31 2536.39,188.31 2536.39,187.44 2535.52,187.44 2534.66,186.59 2533.8,186.58 2532.94,185.72 2532.07,184.86 2531.22,184 2530.35,183.14 2530.35,181.41 2529.49,179.69 2529.49,174.52 2530.35,173.66 2530.35,171.07 2531.22,170.21 2532.07,169.35 2532.07,168.49 2532.94,167.63 2532.94,166.77 2533.8,166.76 2534.66,165.9 2535.52,165.9 2536.38,165.04 2537.25,165.04 2537.25,164.18 2539.83,164.17 2540.69,163.31 2559.65,163.31 2560.52,164.17 2558.8,172.79 "/>
    <polygon class="fil6" points="2568.28,153.83 2579.48,153.83 2577.76,164.17 2584.65,164.17 2582.93,172.79 2576.03,172.79 2572.58,196.06 2571.72,196.06 2571.72,196.92 2572.58,196.93 2572.58,197.79 2573.44,198.65 2580.34,198.65 2580.34,197.79 2581.2,197.79 2579.48,205.54 2579.48,206.41 2577.76,206.41 2576.89,207.27 2565.69,207.27 2563.96,206.41 2562.24,206.41 2562.24,205.54 2561.38,204.69 2560.52,204.68 2560.52,198.65 "/>
    <polyline class="fil11 str0" points="2568.28,153.83 2579.48,153.83 2577.76,164.17 2584.65,164.17 2582.93,172.79 2576.03,172.79 2572.58,196.06 2571.72,196.06 2571.72,196.92 2572.58,196.93 2572.58,197.79 2573.44,198.65 2580.34,198.65 2580.34,197.79 2581.2,197.79 2579.48,205.54 2579.48,206.41 2577.76,206.41 2576.89,207.27 2565.69,207.27 2563.96,206.41 2562.24,206.41 2562.24,205.54 2561.38,204.69 2560.52,204.68 2560.52,198.65 2568.28,153.83 "/>
    <polygon class="fil6" points="2498.46,188.31 2498.46,192.62 2499.32,193.48 2500.18,194.34 2500.18,195.2 2501.04,196.06 2501.91,196.06 2502.77,196.92 2503.63,197.78 2505.36,197.79 2506.22,198.65 2516.56,198.65 2517.42,197.79 2519.15,197.79 2520.01,196.93 2520.87,196.93 2522.59,196.07 2523.45,195.2 2521.73,205.54 2520.87,205.54 2520.01,206.41 2518.29,206.41 2518.29,207.27 2501.05,207.27 2500.19,206.41 2498.46,206.41 2497.6,205.54 2496.74,205.54 2495.02,204.69 2494.16,203.82 2493.29,203.82 2492.43,202.96 2492.43,202.09 2491.57,201.24 2490.71,201.24 2489.85,200.37 2488.98,198.65 2488.98,197.79 2488.13,196.93 2487.26,196.07 2487.26,193.48 2486.4,191.76 2486.4,183.14 2487.26,182.28 2487.26,178.83 2488.13,177.97 2488.13,176.25 2488.98,175.39 2488.98,174.53 2489.85,173.67 2489.85,172.81 2490.71,171.94 2491.57,171.09 2491.57,170.22 2492.43,169.36 2493.29,169.35 2494.15,168.48 2495.01,167.63 2495.87,166.76 2496.73,165.9 2498.46,165.9 2499.32,165.04 2500.18,164.18 2502.77,164.17 2504.49,163.31 2513.98,163.31 2514.84,164.17 2516.56,164.17 2517.42,165.03 2519.15,165.04 2520.01,165.9 2520.87,165.9 2520.87,166.76 2521.73,167.62 2522.59,168.48 2523.46,168.48 2523.46,169.34 2524.32,170.2 2524.32,171.06 2525.18,171.92 2525.18,173.65 2526.04,174.5 2526.04,184.85 2525.18,186.57 2525.18,189.16 2495.01,189.17 2496.73,180.55 2514.84,180.55 2514.84,177.1 2513.98,176.24 2513.98,174.52 2513.11,174.52 2513.11,173.66 2512.25,173.65 2511.39,172.79 2510.53,172.79 2509.67,171.93 2507.08,171.93 2506.22,172.79 2504.5,172.79 2504.5,173.65 2503.63,173.65 2502.77,174.51 2501.91,175.37 2501.91,176.23 2501.05,177.09 2501.05,177.95 2500.19,177.96 2500.19,179.68 "/>
    <polyline class="fil11 str0" points="2498.46,188.31 2498.46,192.62 2499.32,193.48 2500.18,194.34 2500.18,195.2 2501.04,196.06 2501.91,196.06 2502.77,196.92 2503.63,197.78 2505.36,197.79 2506.22,198.65 2516.56,198.65 2517.42,197.79 2519.15,197.79 2520.01,196.93 2520.87,196.93 2522.59,196.07 2523.45,195.2 2521.73,205.54 2520.87,205.54 2520.01,206.41 2518.29,206.41 2518.29,207.27 2501.05,207.27 2500.19,206.41 2498.46,206.41 2497.6,205.54 2496.74,205.54 2495.02,204.69 2494.16,203.82 2493.29,203.82 2492.43,202.96 2492.43,202.09 2491.57,201.24 2490.71,201.24 2489.85,200.37 2488.98,198.65 2488.98,197.79 2488.13,196.93 2487.26,196.07 2487.26,193.48 2486.4,191.76 2486.4,183.14 2487.26,182.28 2487.26,178.83 2488.13,177.97 2488.13,176.25 2488.98,175.39 2488.98,174.53 2489.85,173.67 2489.85,172.81 2490.71,171.94 2491.57,171.09 2491.57,170.22 2492.43,169.36 2493.29,169.35 2494.15,168.48 2495.01,167.63 2495.87,166.76 2496.73,165.9 2498.46,165.9 2499.32,165.04 2500.18,164.18 2502.77,164.17 2504.49,163.31 2513.98,163.31 2514.84,164.17 2516.56,164.17 2517.42,165.03 2519.15,165.04 2520.01,165.9 2520.87,165.9 2520.87,166.76 2521.73,167.62 2522.59,168.48 2523.46,168.48 2523.46,169.34 2524.32,170.2 2524.32,171.06 2525.18,171.92 2525.18,173.65 2526.04,174.5 2526.04,184.85 2525.18,186.57 2525.18,189.16 2495.01,189.17 2496.73,180.55 2514.84,180.55 2514.84,177.1 2513.98,176.24 2513.98,174.52 2513.11,174.52 2513.11,173.66 2512.25,173.65 2511.39,172.79 2510.53,172.79 2509.67,171.93 2507.08,171.93 2506.22,172.79 2504.5,172.79 2504.5,173.65 2503.63,173.65 2502.77,174.51 2501.91,175.37 2501.91,176.23 2501.05,177.09 2501.05,177.95 2500.19,177.96 2500.19,179.68 2498.46,188.3 "/>
    <polygon class="fil6" points="2482.95,198.65 2481.23,207.27 2470.88,207.27 2470.88,204.68 2471.74,203.82 2471.74,202.96 2470.88,203.82 2470.02,203.82 2470.02,204.68 2469.16,205.54 2467.43,205.54 2466.57,206.41 2465.71,206.41 2464.85,207.27 2463.12,207.27 2462.26,208.13 2453.64,208.13 2452.78,207.27 2451.06,206.41 2450.2,206.41 2449.34,205.54 2448.48,204.69 2447.62,203.82 2447.62,202.96 2446.76,202.1 2446.76,201.24 2445.89,200.38 2445.89,191.76 2446.76,190.04 2447.62,188.32 2448.48,187.46 2449.34,186.59 2450.2,185.74 2451.06,184.02 2451.92,184 2453.64,183.14 2454.5,182.28 2456.22,181.41 2457.09,181.41 2458.81,180.55 2463.99,180.55 2464.85,179.69 2474.33,179.69 2474.33,175.38 2473.47,175.38 2473.47,174.52 2472.61,174.52 2472.61,173.66 2471.74,173.65 2471.74,172.79 2462.26,172.79 2460.54,173.65 2456.23,173.65 2454.51,174.51 2452.78,174.52 2451.92,175.38 2455.37,165.04 2457.09,165.04 2457.95,164.18 2460.54,164.17 2462.26,163.31 2475.19,163.31 2476.91,164.17 2477.78,164.17 2479.5,165.03 2480.36,165.04 2482.08,165.9 2482.94,166.76 2483.8,167.62 2484.67,168.48 2485.52,170.2 2486.39,171.06 2487.25,172.78 2487.25,177.09 "/>
    <polyline class="fil11 str0" points="2482.95,198.65 2481.23,207.27 2470.88,207.27 2470.88,204.68 2471.74,203.82 2471.74,202.96 2470.88,203.82 2470.02,203.82 2470.02,204.68 2469.16,205.54 2467.43,205.54 2466.57,206.41 2465.71,206.41 2464.85,207.27 2463.12,207.27 2462.26,208.13 2453.64,208.13 2452.78,207.27 2451.06,206.41 2450.2,206.41 2449.34,205.54 2448.48,204.69 2447.62,203.82 2447.62,202.96 2446.76,202.1 2446.76,201.24 2445.89,200.38 2445.89,191.76 2446.76,190.04 2447.62,188.32 2448.48,187.46 2449.34,186.59 2450.2,185.74 2451.06,184.02 2451.92,184 2453.64,183.14 2454.5,182.28 2456.22,181.41 2457.09,181.41 2458.81,180.55 2463.99,180.55 2464.85,179.69 2474.33,179.69 2474.33,175.38 2473.47,175.38 2473.47,174.52 2472.61,174.52 2472.61,173.66 2471.74,173.65 2471.74,172.79 2462.26,172.79 2460.54,173.65 2456.23,173.65 2454.51,174.51 2452.78,174.52 2451.92,175.38 2455.37,165.04 2457.09,165.04 2457.95,164.18 2460.54,164.17 2462.26,163.31 2475.19,163.31 2476.91,164.17 2477.78,164.17 2479.5,165.03 2480.36,165.04 2482.08,165.9 2482.94,166.76 2483.8,167.62 2484.67,168.48 2485.52,170.2 2486.39,171.06 2487.25,172.78 2487.25,177.09 2482.94,198.64 "/>
    <polygon class="fil9" points="2472.61,187.44 2465.71,187.44 2464.85,188.31 2463.12,188.31 2462.26,189.17 2461.4,190.03 2460.54,190.03 2459.68,190.89 2459.68,191.75 2458.81,191.75 2458.81,193.47 2457.95,193.48 2457.95,195.2 2458.81,196.06 2458.81,196.92 2459.67,197.78 2459.67,198.64 2465.71,198.65 2466.57,197.79 2468.3,197.79 2468.3,196.93 2469.16,196.93 2470.02,196.07 2470.88,195.2 2470.88,194.34 2471.74,193.48 2471.74,191.76 2472.6,190.9 2472.6,188.31 "/>
    <polygon class="fil6" points="2396.76,207.27 2385.56,207.27 2395.04,153.83 2414,153.83 2416.59,185.72 2429.52,153.83 2449.33,153.83 2439.85,207.27 2428.65,207.27 2436.41,167.62 2435.54,167.62 2419.17,207.27 2406.24,207.27 2406.24,195.2 2405.38,188.3 2405.38,180.54 2404.52,174.51 2404.52,167.61 2403.65,167.62 "/>
    <polyline class="fil11 str0" points="2396.76,207.27 2385.56,207.27 2395.04,153.83 2414,153.83 2416.59,185.72 2429.52,153.83 2449.33,153.83 2439.85,207.27 2428.65,207.27 2436.41,167.62 2435.54,167.62 2419.17,207.27 2406.24,207.27 2406.24,195.2 2405.38,188.3 2405.38,180.54 2404.52,174.51 2404.52,167.61 2403.65,167.62 2396.76,207.27 "/>
    <polygon class="fil6" points="2582.93,207.27 2594.13,207.27 2598.44,184.86 2598.44,181.41 2599.3,181.41 2599.3,180.55 2600.17,179.69 2600.17,178.83 2601.02,177.96 2601.89,177.11 2602.74,176.24 2604.47,175.38 2607.92,175.38 2609.64,174.52 2610.5,174.52 2610.5,175.38 2610.5,174.52 2611.37,174.52 2611.37,171.93 2612.22,170.21 2612.22,169.35 2613.09,168.48 2613.09,166.76 2613.95,165.9 2613.95,165.04 2614.81,165.04 2614.81,163.31 2610.5,163.31 2609.65,164.17 2607.92,164.17 2607.06,165.03 2606.2,165.04 2605.33,165.9 2604.47,165.9 2604.47,166.76 2603.61,167.62 2602.75,168.48 2602.75,169.34 2601.89,169.35 2601.02,170.21 2601.02,171.07 2601.89,164.17 2590.69,164.17 "/>
    <polyline class="fil11 str0" points="2582.93,207.27 2594.13,207.27 2598.44,184.86 2598.44,181.41 2599.3,181.41 2599.3,180.55 2600.17,179.69 2600.17,178.83 2601.02,177.96 2601.89,177.11 2602.74,176.24 2604.47,175.38 2607.92,175.38 2609.64,174.52 2610.5,174.52 2610.5,175.38 2610.5,174.52 2611.37,174.52 2611.37,171.93 2612.22,170.21 2612.22,169.35 2613.09,168.48 2613.09,166.76 2613.95,165.9 2613.95,165.04 2614.81,165.04 2614.81,163.31 2610.5,163.31 2609.65,164.17 2607.92,164.17 2607.06,165.03 2606.2,165.04 2605.33,165.9 2604.47,165.9 2604.47,166.76 2603.61,167.62 2602.75,168.48 2602.75,169.34 2601.89,169.35 2601.02,170.21 2601.02,171.07 2601.89,164.17 2590.69,164.17 2582.93,207.27 "/>
    <polygon class="fil6" points="2632.91,163.31 2636.36,163.31 2638.08,164.17 2639.81,164.17 2641.53,165.03 2643.26,165.04 2644.11,165.9 2644.98,166.76 2645.84,166.76 2646.7,167.62 2647.56,168.48 2648.43,168.48 2649.29,169.34 2649.29,170.2 2650.15,171.06 2651.01,171.92 2651.01,172.78 2651.87,173.65 2652.73,174.5 2652.73,176.23 2653.59,177.09 2653.59,179.68 2654.45,180.54 2654.45,186.57 2653.59,188.29 2653.59,191.74 2652.73,193.46 2652.73,194.32 2651.87,195.18 2651.87,196.9 2651.01,197.76 2650.15,198.63 2650.15,199.48 2649.29,200.35 2648.43,201.21 2647.56,202.07 2646.7,202.93 2645.84,203.79 2644.98,203.82 2644.12,204.68 2643.26,205.54 2642.39,205.54 2641.53,206.41 2640.67,206.41 2639.81,207.27 2637.22,207.27 2636.36,208.13 2625.15,208.13 2624.3,207.27 2621.7,207.27 2620.85,206.41 2619.98,206.41 2619.12,205.54 2618.26,205.54 2617.4,204.69 2616.54,203.82 2615.67,203.82 2614.81,202.96 2614.81,202.09 2613.95,201.24 2613.09,200.37 2612.23,199.52 2612.23,198.65 2611.37,197.79 2611.37,196.93 2610.51,196.07 2610.51,193.48 2609.65,192.62 2609.65,182.28 2610.51,181.42 2610.51,178.83 2611.37,177.97 2611.37,176.25 2612.23,175.39 2612.23,174.53 2613.09,173.67 2613.95,172.81 2613.95,171.94 2614.81,171.09 2615.67,170.22 2616.54,169.36 2617.4,168.5 2618.26,167.64 2619.12,167.62 2619.98,166.76 2620.85,165.9 2621.7,165.9 2622.57,165.04 2623.43,165.04 2624.3,164.18 2627.74,164.17 2629.46,163.31 2632.05,163.31 "/>
    <polyline class="fil11 str0" points="2632.91,163.31 2636.36,163.31 2638.08,164.17 2639.81,164.17 2641.53,165.03 2643.26,165.04 2644.11,165.9 2644.98,166.76 2645.84,166.76 2646.7,167.62 2647.56,168.48 2648.43,168.48 2649.29,169.34 2649.29,170.2 2650.15,171.06 2651.01,171.92 2651.01,172.78 2651.87,173.65 2652.73,174.5 2652.73,176.23 2653.59,177.09 2653.59,179.68 2654.45,180.54 2654.45,186.57 2653.59,188.29 2653.59,191.74 2652.73,193.46 2652.73,194.32 2651.87,195.18 2651.87,196.9 2651.01,197.76 2650.15,198.63 2650.15,199.48 2649.29,200.35 2648.43,201.21 2647.56,202.07 2646.7,202.93 2645.84,203.79 2644.98,203.82 2644.12,204.68 2643.26,205.54 2642.39,205.54 2641.53,206.41 2640.67,206.41 2639.81,207.27 2637.22,207.27 2636.36,208.13 2625.15,208.13 2624.3,207.27 2621.7,207.27 2620.85,206.41 2619.98,206.41 2619.12,205.54 2618.26,205.54 2617.4,204.69 2616.54,203.82 2615.67,203.82 2614.81,202.96 2614.81,202.09 2613.95,201.24 2613.09,200.37 2612.23,199.52 2612.23,198.65 2611.37,197.79 2611.37,196.93 2610.51,196.07 2610.51,193.48 2609.65,192.62 2609.65,182.28 2610.51,181.42 2610.51,178.83 2611.37,177.97 2611.37,176.25 2612.23,175.39 2612.23,174.53 2613.09,173.67 2613.95,172.81 2613.95,171.94 2614.81,171.09 2615.67,170.22 2616.54,169.36 2617.4,168.5 2618.26,167.64 2619.12,167.62 2619.98,166.76 2620.85,165.9 2621.7,165.9 2622.57,165.04 2623.43,165.04 2624.3,164.18 2627.74,164.17 2629.46,163.31 2632.91,163.31 "/>
    <polygon class="fil6" points="2650.15,205.54 2653.6,205.54 2276.96,205.54 2276.96,208.99 2276.1,208.99 2276.1,205.54 2275.24,205.54 "/>
    <polygon class="fil6" points="2653.6,205.54 2654.46,205.54 2656.19,208.13 2657.04,205.54 2657.91,205.54 2657.91,208.99 2657.04,208.99 2657.04,206.4 2656.19,208.99 2655.32,208.99 2654.46,206.4 2654.46,208.99 2653.6,208.99 "/>
    <polyline class="fil11 str0" points="2653.6,205.54 2654.46,205.54 2656.19,208.13 2657.04,205.54 2657.91,205.54 2657.91,208.99 2657.04,208.99 2657.04,206.4 2656.19,208.99 2655.32,208.99 2654.46,206.4 2654.46,208.99 2653.6,208.99 2653.6,205.54 "/>
    <polygon class="fil8" points="2623.43,184 2623.43,190.89 2624.3,191.76 2624.3,193.48 2625.15,193.48 2625.15,194.34 2626.02,195.2 2626.02,196.06 2627.74,196.06 2628.6,196.92 2632.05,196.93 2632.91,196.07 2634.63,196.06 2635.5,195.2 2636.36,194.34 2637.22,194.34 2637.22,193.48 2638.08,192.62 2638.94,190.89 2638.94,190.04 2639.81,189.17 2639.81,185.72 2640.67,184.86 2640.67,178.83 2639.81,177.97 2639.81,176.25 2638.94,175.39 2638.08,174.53 2637.22,173.67 2635.5,173.65 2634.64,172.79 2632.91,172.79 2632.05,173.65 2630.33,173.65 2629.46,174.51 2628.6,174.52 2627.74,175.38 2627.74,176.24 2626.88,177.1 2626.02,177.96 2626.02,178.82 2625.16,179.68 2625.16,180.54 2624.3,181.4 2624.3,183.13 "/>
   </g>
   <g id="_2653236431456">
    <path class="fil7" d="M1622.96 315c0,8.62 -6.9,16.38 -16.38,16.38l-449.89 -0c-8.62,0 -16.38,-6.9 -16.38,-16.38l0 -268.9c0,-9.48 6.9,-16.38 16.38,-16.38l450.76 0c8.62,0 16.38,6.9 16.38,16.38l0 268.9 -0.87 0z"/>
    <polygon class="fil12" points="1439.38,266.74 1448.86,266.74 1453.17,265.87 1457.48,265.01 1460.93,264.15 1465.24,263.29 1469.55,261.57 1473,260.71 1477.31,258.99 1480.76,256.4 1484.2,254.68 1487.65,252.09 1491.1,249.5 1494.55,246.91 1498,244.33 1500.59,241.74 1504.04,238.29 1506.63,235.7 1509.21,232.25 1511.8,228.8 1513.52,225.35 1516.11,221.91 1517.83,217.59 1519.56,214.15 1521.28,209.84 1522.14,206.39 1523.86,202.08 1524.72,197.77 1525.58,193.46 1525.58,189.15 1526.44,184.84 1526.44,176.22 1525.58,171.91 1525.58,167.6 1524.72,163.29 1523.86,158.98 1522.14,154.67 1521.28,150.36 1519.56,146.91 1517.83,142.61 1516.11,139.16 1513.52,135.71 1511.8,132.26 1509.21,128.81 1506.63,125.36 1504.04,121.91 1500.59,119.32 1498,116.74 1494.55,113.29 1491.1,110.7 1487.65,108.98 1484.2,106.39 1480.76,104.67 1477.31,102.08 1473,100.36 1469.55,99.5 1465.24,97.78 1460.93,96.91 1457.48,96.06 1453.17,95.19 1448.86,94.33 1430.76,94.36 1426.45,95.22 1422.14,96.08 1417.83,96.94 1413.52,97.8 1410.07,99.53 1405.77,100.39 1402.31,102.11 1398.01,104.7 1394.56,106.42 1391.11,109 1387.66,110.73 1384.21,113.31 1381.62,116.76 1378.17,119.35 1375.59,121.94 1373,125.39 1370.41,128.84 1367.82,132.29 1365.24,135.74 1363.51,139.19 1361.79,142.63 1360.07,146.94 1358.35,150.39 1356.63,154.7 1355.77,159.01 1354.91,163.32 1354.04,167.63 1353.19,171.94 1353.19,189.18 1354.04,193.49 1354.91,197.8 1355.77,202.11 1356.63,206.42 1358.35,209.87 1360.07,214.18 1361.79,217.63 1363.51,221.93 1365.24,225.38 1367.82,228.83 1370.41,232.28 1373,235.73 1375.59,238.32 1378.17,241.77 1381.62,244.35 1384.21,246.94 1387.66,249.53 1391.11,252.12 1394.56,254.71 1398.01,256.43 1402.31,259.02 1405.77,260.74 1410.07,261.6 1413.52,263.32 1417.83,264.18 1422.14,265.04 1426.45,265.9 1430.76,266.76 "/>
    <polygon class="fil8" points="1323.89,266.74 1332.51,266.74 1336.82,265.87 1341.13,265.01 1345.44,264.15 1349.75,263.29 1353.2,261.57 1357.5,260.71 1360.95,258.99 1365.26,256.4 1368.71,254.68 1372.16,252.09 1375.61,249.5 1379.06,246.91 1381.65,244.33 1385.09,241.74 1387.69,238.29 1390.27,235.7 1392.86,232.25 1395.45,228.8 1398.04,225.35 1399.76,221.91 1401.48,217.59 1403.2,214.15 1404.92,209.84 1406.64,206.39 1407.5,202.08 1408.37,197.77 1409.22,193.46 1410.09,189.15 1410.09,171.91 1409.22,167.6 1408.37,163.29 1407.5,158.98 1406.64,154.67 1404.92,150.36 1403.2,146.91 1401.48,142.61 1399.76,139.16 1398.04,135.71 1395.45,132.26 1392.86,128.81 1390.27,125.36 1387.69,121.91 1385.09,119.32 1381.65,116.74 1379.06,113.29 1375.61,110.7 1372.16,108.98 1368.71,106.39 1365.26,104.67 1360.95,102.08 1357.5,100.36 1353.2,99.5 1349.75,97.78 1345.44,96.91 1341.13,96.06 1336.82,95.19 1332.51,94.33 1314.41,94.36 1310.1,95.22 1305.79,96.08 1302.34,96.94 1298.03,97.8 1293.72,99.53 1290.27,100.39 1285.96,102.11 1282.51,104.7 1279.06,106.42 1274.76,109 1272.17,110.73 1268.72,113.31 1265.27,116.76 1262.68,119.35 1259.23,121.94 1256.65,125.39 1254.06,128.84 1251.47,132.29 1249.75,135.74 1247.16,139.19 1245.44,142.63 1243.72,146.94 1241.99,150.39 1241.13,154.7 1239.41,159.01 1238.55,163.32 1237.69,167.63 1237.69,171.94 1236.83,176.25 1236.83,184.87 1237.69,189.18 1237.69,193.49 1238.55,197.8 1239.41,202.11 1241.13,206.42 1241.99,209.87 1243.72,214.18 1245.44,217.63 1247.16,221.93 1249.75,225.38 1251.47,228.83 1254.06,232.28 1256.65,235.73 1259.23,238.32 1262.68,241.77 1265.27,244.35 1268.72,246.94 1272.17,249.53 1274.76,252.12 1279.06,254.71 1282.51,256.43 1285.96,259.02 1290.27,260.74 1293.72,261.6 1298.03,263.32 1302.34,264.18 1305.79,265.04 1310.1,265.9 1314.41,266.76 "/>
    <path class="fil12" d="M1371.3 127.11l46.54 0 0 -4.31 -42.23 0 -4.31 4.31zm-6.9 10.34l53.44 0 0 -4.31 -50.85 0.01 -2.59 4.31 0 -0zm-5.17 10.35l58.61 0 0 -4.31 -56.02 0 -2.59 4.31zm-3.45 10.34l62.06 0 0 -4.31 -60.33 0 -1.72 4.31 -0.01 0zm2.59 50.85l59.47 0 0 -4.31 -61.2 0 1.72 4.31 0.01 0zm4.31 10.35l55.16 0 0 -4.31 -57.75 0 2.59 4.31zm6.03 10.34l49.13 0 0 -4.31 -52.58 0 3.45 4.31zm8.62 10.34l40.51 0 0 -4.31 -44.82 0 4.31 4.31zm-23.27 -70.67l63.78 0 0 -5.17 -62.92 -0.01 -0.86 5.17 0 0zm38.78 29.3l24.13 0 0 -4.31 -23.27 0 -0.86 4.31 -0 0zm1.72 -10.34l22.41 0 0 -5.17 -21.55 0 -0.86 5.17zm-42.23 -5.17l6.03 0 0 5.17 -6.03 0 0 -5.17z"/>
    <polygon class="fil6" points="1340.27,177.96 1338.54,177.96 1338.54,177.1 1331.65,177.1 1330.79,177.96 1329.93,177.96 1329.06,178.82 1329.06,181.41 1329.93,182.27 1330.79,182.27 1331.65,183.13 1332.51,183.14 1333.37,184 1335.09,184 1335.96,184.86 1336.82,184.86 1337.68,185.72 1338.54,186.58 1339.4,187.44 1339.4,188.3 1340.26,190.02 1340.26,193.47 1339.4,194.33 1339.4,196.92 1338.54,197.78 1337.68,198.64 1336.82,199.5 1335.96,200.36 1335.09,200.37 1334.24,201.23 1333.37,201.24 1332.51,202.09 1317.86,202.09 1317,201.24 1316.13,201.24 1317,194.34 1317.86,194.34 1317.86,195.2 1321.31,195.2 1322.17,196.06 1328.2,196.06 1329.06,195.2 1329.93,195.2 1330.79,194.34 1330.79,191.75 1329.93,190.89 1329.93,190.03 1328.2,190.03 1327.34,189.17 1326.48,189.17 1325.61,188.31 1323.89,188.31 1323.03,187.44 1322.17,186.59 1321.31,185.72 1320.44,184.86 1319.58,183.14 1319.58,177.97 1320.44,177.11 1320.44,175.39 1321.31,174.53 1322.17,173.67 1323.03,172.81 1323.89,171.94 1324.75,171.93 1325.61,171.07 1328.2,171.07 1329.92,170.21 1338.54,170.21 1338.54,171.07 1341.99,171.07 1340.27,177.96 "/>
    <polyline class="fil11 str1" points="1340.27,177.96 1338.54,177.96 1338.54,177.1 1331.65,177.1 1330.79,177.96 1329.93,177.96 1329.06,178.82 1329.06,181.41 1329.93,182.27 1330.79,182.27 1331.65,183.13 1332.51,183.14 1333.37,184 1335.09,184 1335.96,184.86 1336.82,184.86 1337.68,185.72 1338.54,186.58 1339.4,187.44 1339.4,188.3 1340.26,190.02 1340.26,193.47 1339.4,194.33 1339.4,196.92 1338.54,197.78 1337.68,198.64 1336.82,199.5 1335.96,200.36 1335.09,200.37 1334.24,201.23 1333.37,201.24 1332.51,202.09 1317.86,202.09 1317,201.24 1316.13,201.24 1317,194.34 1317.86,194.34 1317.86,195.2 1321.31,195.2 1322.17,196.06 1328.2,196.06 1329.06,195.2 1329.93,195.2 1330.79,194.34 1330.79,191.75 1329.93,190.89 1329.93,190.03 1328.2,190.03 1327.34,189.17 1326.48,189.17 1325.61,188.31 1323.89,188.31 1323.03,187.44 1322.17,186.59 1321.31,185.72 1320.44,184.86 1319.58,183.14 1319.58,177.97 1320.44,177.11 1320.44,175.39 1321.31,174.53 1322.17,173.67 1323.03,172.81 1323.89,171.94 1324.75,171.93 1325.61,171.07 1328.2,171.07 1329.92,170.21 1338.54,170.21 1338.54,171.07 1341.99,171.07 1340.27,177.96 "/>
    <polygon class="fil6" points="1347.16,164.17 1355.78,164.17 1354.06,171.07 1359.22,171.07 1358.37,177.96 1353.2,177.11 1349.75,193.48 1349.75,194.34 1350.61,195.2 1351.47,196.07 1355.78,196.06 1356.64,195.2 1355.78,201.23 1354.06,201.24 1354.06,202.09 1344.57,202.09 1343.72,201.24 1342.85,201.24 1341.99,200.37 1341.99,196.07 1347.16,164.18 "/>
    <polyline class="fil11 str1" points="1347.16,164.17 1355.78,164.17 1354.06,171.07 1359.22,171.07 1358.37,177.96 1353.2,177.11 1349.75,193.48 1349.75,194.34 1350.61,195.2 1351.47,196.07 1355.78,196.06 1356.64,195.2 1355.78,201.23 1354.06,201.24 1354.06,202.09 1344.57,202.09 1343.72,201.24 1342.85,201.24 1341.99,200.37 1341.99,196.07 1347.16,164.18 "/>
    <polyline class="fil11 str1" points="1365.26,188.31 1365.26,190.89 1366.12,190.89 1366.12,192.61 1366.98,192.62 1366.98,193.48 1367.85,193.48 1367.85,194.34 1368.7,194.34 1369.57,195.2 1371.3,195.2 1371.3,196.06 1378.19,196.06 1378.19,195.2 1380.78,195.2 1381.63,194.34 1382.5,194.34 1383.36,193.48 1382.5,200.37 1381.63,201.24 1379.91,201.24 1379.91,202.09 1368.7,202.09 1366.98,201.24 1365.26,201.24 1364.4,200.37 1362.67,199.52 1361.81,198.65 1360.95,197.79 1359.23,196.93 1358.37,195.21 1358.37,194.35 1357.51,192.63 1357.51,182.29 1358.37,181.43 1358.37,179.7 1359.23,178.84 1360.09,177.12 1360.95,176.26 1361.81,175.4 1362.67,173.68 1363.54,172.82 1365.26,171.96 1366.98,171.1 1368.7,171.07 1371.3,170.21 1375.6,170.21 1377.33,171.07 1379.05,171.07 1380.77,171.93 1381.63,172.79 1382.49,173.65 1383.35,174.51 1384.21,175.37 1385.07,177.09 1385.07,186.57 1384.21,189.16 1363.54,189.17 1364.4,183.14 1377.33,183.14 1377.33,179.69 1376.46,179.69 1376.46,178.83 1375.6,177.96 1374.74,177.96 1374.74,177.1 1370.43,177.1 1369.57,177.96 1368.71,178.82 1367.85,179.68 1367.85,180.54 1366.98,180.55 1366.98,182.27 1365.26,188.3 "/>
    <polygon class="fil6" points="1435.07,172.79 1434.21,172.79 1434.21,171.93 1432.48,171.93 1432.48,171.07 1423,171.07 1422.14,171.93 1421.28,171.93 1420.42,172.79 1419.56,172.79 1418.69,173.65 1417.83,174.51 1416.97,176.23 1416.97,177.09 1416.11,178.81 1415.25,180.54 1415.25,182.26 1414.39,183.12 1414.39,187.43 1415.25,188.29 1415.25,190.01 1416.11,190.87 1416.11,191.73 1416.97,191.75 1417.83,192.61 1418.69,193.47 1419.56,193.48 1420.42,194.34 1429.04,194.34 1429.9,193.48 1430.76,193.48 1431.62,192.62 1430.76,200.37 1429.9,200.37 1429.04,201.23 1428.17,201.24 1427.31,202.09 1416.11,202.09 1415.25,201.24 1413.53,200.37 1412.67,200.37 1410.94,199.51 1410.08,197.79 1409.22,196.93 1408.36,195.2 1407.5,194.34 1406.64,192.62 1405.78,190.9 1405.78,180.56 1406.64,179.7 1406.64,177.11 1407.5,176.25 1407.5,175.39 1408.36,174.53 1408.36,173.67 1409.22,172.81 1409.22,171.94 1410.08,171.09 1410.08,170.22 1410.94,169.36 1411.8,168.5 1412.67,167.64 1413.52,166.78 1414.39,166.76 1414.39,165.9 1415.24,165.04 1416.11,165.04 1416.97,164.18 1418.69,164.17 1419.56,163.31 1422.14,163.31 1423,162.45 1429.04,162.45 1429.9,163.31 1434.21,163.31 1434.21,164.17 1435.93,164.17 1436.8,165.03 "/>
    <polyline class="fil11 str1" points="1435.07,172.79 1434.21,172.79 1434.21,171.93 1432.48,171.93 1432.48,171.07 1423,171.07 1422.14,171.93 1421.28,171.93 1420.42,172.79 1419.56,172.79 1418.69,173.65 1417.83,174.51 1416.97,176.23 1416.97,177.09 1416.11,178.81 1415.25,180.54 1415.25,182.26 1414.39,183.12 1414.39,187.43 1415.25,188.29 1415.25,190.01 1416.11,190.87 1416.11,191.73 1416.97,191.75 1417.83,192.61 1418.69,193.47 1419.56,193.48 1420.42,194.34 1429.04,194.34 1429.9,193.48 1430.76,193.48 1431.62,192.62 1430.76,200.37 1429.9,200.37 1429.04,201.23 1428.17,201.24 1427.31,202.09 1416.11,202.09 1415.25,201.24 1413.53,200.37 1412.67,200.37 1410.94,199.51 1410.08,197.79 1409.22,196.93 1408.36,195.2 1407.5,194.34 1406.64,192.62 1405.78,190.9 1405.78,180.56 1406.64,179.7 1406.64,177.11 1407.5,176.25 1407.5,175.39 1408.36,174.53 1408.36,173.67 1409.22,172.81 1409.22,171.94 1410.08,171.09 1410.08,170.22 1410.94,169.36 1411.8,168.5 1412.67,167.64 1413.52,166.78 1414.39,166.76 1414.39,165.9 1415.24,165.04 1416.11,165.04 1416.97,164.18 1418.69,164.17 1419.56,163.31 1422.14,163.31 1423,162.45 1429.04,162.45 1429.9,163.31 1434.21,163.31 1434.21,164.17 1435.93,164.17 1436.8,165.03 1435.07,172.79 "/>
    <polygon class="fil6" points="1507.47,202.09 1498.85,202.09 1499.71,198.65 1498.85,199.51 1497.99,200.37 1497.13,201.23 1496.26,201.24 1496.26,202.09 1493.68,202.09 1493.68,202.96 1489.37,202.96 1488.51,202.09 1486.78,202.09 1485.92,201.24 1484.2,200.37 1483.34,199.52 1482.48,197.79 1482.48,196.93 1481.62,196.07 1480.76,194.35 1480.76,185.73 1481.62,184.01 1481.62,182.29 1482.48,180.57 1483.34,178.84 1484.2,177.98 1485.06,176.26 1485.92,175.4 1486.78,174.54 1487.64,173.68 1488.5,172.82 1490.23,172.79 1491.09,171.93 1491.95,171.93 1493.67,171.07 1498.85,171.07 1499.71,171.93 1500.57,171.93 1501.43,172.79 1502.3,173.65 1503.15,174.51 1504.02,175.37 1505.74,164.17 1513.5,164.17 1507.47,202.09 "/>
    <polyline class="fil11 str1" points="1507.47,202.09 1498.85,202.09 1499.71,198.65 1498.85,199.51 1497.99,200.37 1497.13,201.23 1496.26,201.24 1496.26,202.09 1493.68,202.09 1493.68,202.96 1489.37,202.96 1488.51,202.09 1486.78,202.09 1485.92,201.24 1484.2,200.37 1483.34,199.52 1482.48,197.79 1482.48,196.93 1481.62,196.07 1480.76,194.35 1480.76,185.73 1481.62,184.01 1481.62,182.29 1482.48,180.57 1483.34,178.84 1484.2,177.98 1485.06,176.26 1485.92,175.4 1486.78,174.54 1487.64,173.68 1488.5,172.82 1490.23,172.79 1491.09,171.93 1491.95,171.93 1493.67,171.07 1498.85,171.07 1499.71,171.93 1500.57,171.93 1501.43,172.79 1502.3,173.65 1503.15,174.51 1504.02,175.37 1505.74,164.17 1513.5,164.17 1507.47,202.09 "/>
    <polygon class="fil12" points="1493.68,195.2 1496.26,195.2 1497.12,194.34 1497.98,193.48 1498.85,193.48 1498.85,192.62 1499.71,191.76 1500.57,190.89 1500.57,189.17 1501.43,188.31 1501.43,180.56 1500.57,180.55 1500.57,179.69 1499.71,178.83 1498.85,178.83 1498.85,177.96 1496.26,177.96 1495.4,178.82 1493.68,178.83 1493.68,179.69 1492.82,179.69 1492.82,180.55 1491.96,181.41 1491.96,182.27 1491.09,182.27 1491.09,183.13 1490.23,183.99 1490.23,192.61 1491.09,193.47 1491.95,194.33 1492.81,195.19 "/>
    <polygon class="fil6" points="1314.41,196.06 1313.55,202.09 1305.79,202.09 1306.65,201.24 1306.65,198.65 1306.65,199.51 1305.79,199.51 1304.93,200.37 1304.07,201.23 1302.34,201.24 1301.48,202.09 1299.76,202.09 1298.9,202.96 1294.59,202.96 1293.73,202.09 1292.86,202.09 1292,201.24 1291.14,201.24 1291.14,200.37 1290.28,200.37 1289.42,199.51 1288.56,198.65 1288.56,196.06 1287.7,195.2 1287.7,192.61 1288.56,191.75 1288.56,190.03 1289.42,189.17 1290.28,188.31 1290.28,187.44 1291.14,186.59 1292,185.72 1292.86,184.86 1293.73,184.86 1294.59,184 1295.45,184 1296.31,183.14 1299.76,183.14 1299.76,182.28 1308.38,182.27 1308.38,181.41 1309.24,181.41 1309.24,180.55 1308.38,179.69 1308.38,178.83 1307.52,177.96 1306.65,177.96 1305.79,177.1 1300.62,177.1 1299.76,177.96 1294.59,177.96 1293.73,178.82 1292.86,178.83 1294.58,171.93 1296.31,171.93 1297.17,171.07 1302.34,171.07 1303.2,170.21 1305.79,170.21 1306.65,171.07 1310.96,171.07 1312.68,171.93 1313.55,171.93 1314.41,172.79 1315.27,172.79 1315.27,173.65 1316.13,174.51 1316.99,175.37 1316.99,176.23 1317.85,177.09 1317.85,180.54 1314.4,196.06 "/>
    <polyline class="fil11 str1" points="1314.41,196.06 1313.55,202.09 1305.79,202.09 1306.65,201.24 1306.65,198.65 1306.65,199.51 1305.79,199.51 1304.93,200.37 1304.07,201.23 1302.34,201.24 1301.48,202.09 1299.76,202.09 1298.9,202.96 1294.59,202.96 1293.73,202.09 1292.86,202.09 1292,201.24 1291.14,201.24 1291.14,200.37 1290.28,200.37 1289.42,199.51 1288.56,198.65 1288.56,196.06 1287.7,195.2 1287.7,192.61 1288.56,191.75 1288.56,190.03 1289.42,189.17 1290.28,188.31 1290.28,187.44 1291.14,186.59 1292,185.72 1292.86,184.86 1293.73,184.86 1294.59,184 1295.45,184 1296.31,183.14 1299.76,183.14 1299.76,182.28 1308.38,182.27 1308.38,181.41 1309.24,181.41 1309.24,180.55 1308.38,179.69 1308.38,178.83 1307.52,177.96 1306.65,177.96 1305.79,177.1 1300.62,177.1 1299.76,177.96 1294.59,177.96 1293.73,178.82 1292.86,178.83 1294.58,171.93 1296.31,171.93 1297.17,171.07 1302.34,171.07 1303.2,170.21 1305.79,170.21 1306.65,171.07 1310.96,171.07 1312.68,171.93 1313.55,171.93 1314.41,172.79 1315.27,172.79 1315.27,173.65 1316.13,174.51 1316.99,175.37 1316.99,176.23 1317.85,177.09 1317.85,180.54 1314.4,196.06 "/>
    <polygon class="fil8" points="1307.52,188.31 1307.52,187.44 1303.2,187.44 1303.2,188.31 1300.62,188.31 1300.62,189.17 1298.9,189.17 1298.9,190.03 1298.04,190.03 1298.04,190.89 1297.17,190.89 1297.17,195.2 1298.04,195.2 1298.9,196.06 1301.48,196.06 1302.34,195.2 1304.07,195.2 1304.07,194.34 1304.93,194.34 1305.79,193.48 1305.79,192.62 1306.65,192.62 1306.65,190.89 1307.51,190.04 1307.51,188.31 "/>
    <polygon class="fil6" points="1253.22,202.09 1245.46,202.09 1251.49,164.18 1265.28,164.17 1267,186.58 1276.48,164.17 1291.14,164.17 1284.24,202.09 1276.49,202.09 1281.66,173.66 1280.8,173.65 1268.73,202.09 1260.11,202.09 1260.11,197.79 1259.25,193.48 1259.25,183.14 1258.39,177.96 1258.39,173.66 "/>
    <polyline class="fil11 str1" points="1253.22,202.09 1245.46,202.09 1251.49,164.18 1265.28,164.17 1267,186.58 1276.48,164.17 1291.14,164.17 1284.24,202.09 1276.49,202.09 1281.66,173.66 1280.8,173.65 1268.73,202.09 1260.11,202.09 1260.11,197.79 1259.25,193.48 1259.25,183.14 1258.39,177.96 1258.39,173.66 1253.22,202.09 "/>
    <polygon class="fil6" points="1459.2,196.06 1458.34,202.09 1451.44,202.09 1451.44,198.65 1450.58,199.51 1449.72,200.37 1448.86,200.37 1448.86,201.23 1448,201.24 1447.14,202.09 1444.55,202.09 1443.69,202.96 1440.24,202.96 1438.52,202.09 1437.65,202.09 1436.8,201.24 1435.93,200.37 1435.07,200.37 1435.07,199.51 1434.21,199.51 1434.21,198.65 1433.35,197.79 1433.35,190.89 1434.21,190.03 1434.21,189.17 1435.07,188.31 1435.93,187.44 1435.93,186.59 1436.8,185.72 1437.65,184.86 1438.52,184.86 1439.38,184 1440.24,184 1441.1,183.14 1444.55,183.14 1444.55,182.28 1453.17,182.27 1454.03,181.41 1454.03,179.69 1453.17,179.69 1453.17,178.83 1452.31,177.96 1451.44,177.96 1450.58,177.1 1445.41,177.1 1444.55,177.96 1439.38,177.96 1439.38,178.82 1437.65,178.83 1440.24,171.93 1441.1,171.93 1441.96,171.07 1447.13,171.07 1448,170.21 1450.58,170.21 1451.44,171.07 1456.62,171.07 1457.48,171.93 1458.34,171.93 1459.2,172.79 1460.06,172.79 1460.93,173.65 1460.93,174.51 1461.78,175.37 1462.65,176.23 1462.65,180.54 1459.2,196.06 "/>
    <polygon class="fil6" points="1440.24,202.96 1444.55,202.96 1445.41,202.09 1447.13,202.09 1448,201.24 1448.86,201.24 1449.72,200.37 1450.58,199.52 1451.44,198.65 1450.58,199.52 1449.72,200.37 1448.86,200.37 1448.86,201.23 1447.13,201.24 1446.28,202.09 1443.69,202.09 1442.83,202.96 1441.1,202.96 1440.24,202.09 "/>
    <polygon class="fil6" points="1432.48,194.34 1433.35,194.34 1433.35,197.79 1434.2,198.65 1434.2,199.51 1435.07,200.37 1435.93,201.23 1436.79,202.09 1438.52,202.09 1440.24,202.96 1440.24,202.09 1437.65,202.09 1437.65,201.24 1436.8,201.24 1435.93,200.37 1435.07,200.37 1435.07,199.51 1434.21,198.65 1434.21,197.79 1433.35,196.93 1433.35,194.34 "/>
    <polygon class="fil6" points="1443.69,182.27 1441.97,183.13 1440.24,183.14 1439.38,184 1438.52,184 1437.66,184.86 1436.8,185.72 1435.94,186.58 1435.07,186.58 1435.07,187.44 1434.21,188.3 1434.21,190.02 1433.35,190.88 1433.35,192.61 1432.49,194.33 1433.35,194.34 1433.35,190.89 1434.2,190.03 1434.2,189.17 1435.07,188.31 1435.93,187.44 1436.79,186.59 1436.79,185.72 1437.65,184.86 1438.52,184.86 1439.38,184 1440.24,184 1441.1,183.14 1443.69,183.14 1443.69,182.28 "/>
    <path class="fil6" d="M1449.72 182.27l-6.03 0 0 0.86 1.72 0.01 0.86 -0.86 3.45 -0.01zm3.45 0l-3.45 0 -305.1 0 -5.18 0 1.73 0 -1.73 0 313.73 0zm0.86 -1.72l-0.86 0.86 0 0.86 0.86 0 0 -1.72zm-3.45 -2.59l1.73 0 0 0.86 0.86 0.01 0 0.86 0.86 0.86 0 -1.72 -0.86 0 0 -0.86 -0.86 -0 -0.86 -0.86 -0.87 0 0 0.86zm-12.93 0.87l1.73 0 0.86 -0.86 10.34 -0 0 -0.86 -6.89 0 -0.86 0.86 -3.45 0 -0.86 0.86 -0.87 0.01zm1.73 -6.9l-1.72 6.9 2.59 -6.9 -0.87 0z"/>
    <path class="fil6" d="M1462.65 180.55l0 -4.31 -0.86 -0.86 0 -0.86 -0.86 -0.86 -0.86 -0.86 -0.87 -0 -0.86 -0.86 -0.86 0 -0.86 -0.86 -1.73 0 -0.86 -0.86 -0.86 0 0 0.86 2.58 0 0.86 0.86 1.73 0 0.86 0.86 0.86 0.86 0.86 0.86 0.86 0.86 0 0.86 0.86 0.86 0 3.45 0.01 0zm-2.59 15.51l2.59 -15.51 -3.45 15.51 0.86 0z"/>
    <polygon class="fil12" points="1452.31,188.31 1452.31,187.44 1448.86,187.44 1448,188.31 1445.41,188.31 1445.41,189.17 1443.69,189.17 1443.69,190.03 1442.83,190.89 1442.83,191.75 1441.96,191.75 1441.96,194.34 1442.83,195.2 1443.69,195.2 1443.69,196.06 1446.28,196.06 1447.13,195.2 1448.86,195.2 1449.72,194.34 1450.58,194.34 1450.58,193.48 1451.44,193.48 1451.44,191.76 1452.31,191.75 1452.31,188.3 "/>
    <polygon class="fil6" points="1512.64,198.65 1512.64,196.93 1513.5,196.07 1513.5,195.2 1514.36,195.2 1515.22,194.34 1518.67,194.34 1518.67,195.2 1519.53,195.2 1520.39,196.06 1520.39,197.78 1521.25,198.64 1520.4,198.65 1519.54,197.79 1519.54,196.93 1518.68,196.07 1517.81,195.2 1515.23,195.2 1515.23,196.06 1514.36,196.06 1514.36,196.92 1513.5,196.93 1513.5,198.65 "/>
    <polygon class="fil6" points="1515.23,198.65 1515.23,196.93 1518.67,196.93 1518.67,197.79 1517.81,198.65 1516.95,198.65 1517.81,197.79 1517.81,196.93 1516.09,196.93 1516.09,198.65 "/>
    <polygon class="fil6" points="1512.64,198.65 1512.64,200.37 1513.5,201.23 1514.36,202.09 1516.09,202.09 1516.95,202.96 1517.81,202.09 1518.67,202.09 1519.53,201.24 1520.4,201.24 1520.4,199.52 1521.26,198.65 1520.4,198.65 1519.54,199.51 1519.54,200.37 1518.68,201.23 1517.81,201.24 1517.81,202.09 1516.09,202.09 1515.23,201.24 1514.36,201.24 1514.36,200.37 1513.5,199.52 1513.5,198.65 "/>
    <polygon class="fil6" points="1515.23,198.65 1515.23,200.37 1516.09,200.37 1516.09,198.65 1516.95,198.65 1517.81,200.37 1516.95,198.65 1517.81,198.65 1137.72,198.65 "/>
    <polygon class="fil6" points="1461.79,202.09 1470.41,202.09 1473,185.72 1473,184 1473.86,183.14 1473.86,182.28 1474.72,181.41 1474.72,180.56 1475.58,180.55 1476.44,179.69 1477.3,179.69 1477.3,178.83 1479.03,178.83 1480.75,177.96 1482.47,177.96 1483.33,171.06 1479.89,171.07 1479.03,171.93 1478.17,172.79 1477.3,172.79 1476.44,173.65 1476.44,174.51 1475.58,174.52 1475.58,175.38 1474.72,175.38 1474.72,176.24 1475.58,171.07 1466.96,171.07 "/>
    <polyline class="fil11 str1" points="1461.79,202.09 1470.41,202.09 1473,185.72 1473,184 1473.86,183.14 1473.86,182.28 1474.72,181.41 1474.72,180.56 1475.58,180.55 1476.44,179.69 1477.3,179.69 1477.3,178.83 1479.03,178.83 1480.75,177.96 1482.47,177.96 1483.33,171.06 1479.89,171.07 1479.03,171.93 1478.17,172.79 1477.3,172.79 1476.44,173.65 1476.44,174.51 1475.58,174.52 1475.58,175.38 1474.72,175.38 1474.72,176.24 1475.58,171.07 1466.96,171.07 1461.79,202.09 "/>
    <polygon class="fil6" points="1384.22,202.09 1392.84,202.09 1395.43,185.72 1395.43,184 1396.29,184 1396.29,182.28 1397.15,182.27 1397.15,181.41 1398.01,180.55 1398.87,180.55 1398.87,179.69 1399.74,179.69 1400.59,178.83 1404.91,178.83 1404.91,176.24 1405.77,175.38 1405.77,173.66 1406.63,172.8 1406.63,171.93 1407.49,171.07 1402.32,171.07 1401.46,171.93 1400.59,171.93 1400.59,172.79 1399.74,172.79 1399.74,173.65 1398.87,173.65 1398.87,174.51 1398.01,175.37 1397.15,176.23 1398.01,171.06 1390.26,171.07 "/>
    <polyline class="fil11 str1" points="1384.22,202.09 1392.84,202.09 1395.43,185.72 1395.43,184 1396.29,184 1396.29,182.28 1397.15,182.27 1397.15,181.41 1398.01,180.55 1398.87,180.55 1398.87,179.69 1399.74,179.69 1400.59,178.83 1404.91,178.83 1404.91,176.24 1405.77,175.38 1405.77,173.66 1406.63,172.8 1406.63,171.93 1407.49,171.07 1402.32,171.07 1401.46,171.93 1400.59,171.93 1400.59,172.79 1399.74,172.79 1399.74,173.65 1398.87,173.65 1398.87,174.51 1398.01,175.37 1397.15,176.23 1398.01,171.06 1390.26,171.07 1384.22,202.09 "/>
    <path class="fil6" d="M1385.08 180.55l0 -3.45 -0.86 -1.72 -0.86 -0.86 -0.86 -0.86 -0.86 -0.86 -0.86 -0.86 -0.86 -0.86 -0.86 -0.86 -7.76 -0 -1.72 0.86 -1.72 0.86 -1.72 0.86 -0.86 0.86 -0.86 0.86 -3.45 1.72 -0.86 0.86 -0.86 0.86 -0.86 0.86 -0.86 0.86 0 10.34 0.86 1.72 0.86 1.72 0.86 1.72 0.86 0.86 0.86 0.86 0.86 0.86 1.72 0.86 1.72 0.86 1.72 0.86 20.69 0.02 0.86 -6.9 -0.86 0.86 -23.28 0.01 2.59 -0.86 -0.86 0 0 -6.9 18.96 0 0 -1.72 0.86 -2.59 0 -2.59 -1.72 0.86 0 0zm-7.76 2.59l-10.34 0 0 -6.03 11.2 -0.01 0 4.31 -0.86 1.72 0 0.01z"/>
   </g>
   <g id="_2653236436160">
    <path class="fil13" d="M1052.91 315c0,8.62 -6.9,16.38 -16.38,16.38l-449.89 -0c-8.62,0 -16.38,-6.9 -16.38,-16.38l0 -268.9c0,-9.48 6.9,-16.38 16.38,-16.38l450.76 0c8.62,0 16.38,6.9 16.38,16.38l0 268.9 -0.87 0z"/>
    <path class="fil6" d="M792.63 226.23l-24.14 0 14.65 -91.36 24.14 0 -14.65 91.36zm-43.96 -91.36l-22.41 62.06 -2.59 -13.79 -7.76 -40.51c0,0 -0.86,-7.76 -11.2,-7.76l-37.06 0 0 1.72c0,0 11.2,2.59 25,10.34l20.69 78.43 24.99 0 37.92 -90.5 -27.58 0zm186.17 91.36l21.55 0 -18.96 -90.5 -18.96 0c-8.62,0 -11.2,6.9 -11.2,6.9l-35.34 83.6 24.99 0 5.17 -13.79 30.17 0 2.59 13.79 -0 0zm-26.72 -32.75l12.07 -33.61 6.9 33.61 -18.97 0zm-34.47 -36.2l3.45 -19.82c0,0 -10.34,-4.31 -21.55,-4.31 -12.07,0 -39.65,5.17 -39.65,30.17 0,23.27 32.75,23.27 32.75,36.2 0,12.07 -29.3,10.34 -38.78,2.59l-3.45 20.69c0,0 10.34,5.17 26.72,5.17 16.38,0 40.51,-8.62 40.51,-31.03 0,-23.27 -32.75,-25.86 -32.75,-36.2 0,-10.34 23.27,-9.48 32.75,-3.45l0.01 -0z"/>
    <path class="fil14" d="M723.68 184l-7.76 -40.51c0,0 -0.86,-7.76 -11.2,-7.76l-37.07 0 0 1.72c0,0 18.1,3.45 35.34,17.24 15.51,12.93 20.69,29.3 20.69,29.3l0 0z"/>
   </g>
  </g>
 </g>
</svg>
